<svg width="457" height="150" viewBox="0 0 457 150" fill="none" xmlns="http://www.w3.org/2000/svg">
<path d="M17.3334 2.286C9.86668 5.486 4.13335 12.0193 1.86668 19.7527C-0.533317 28.1527 0.266683 31.886 4.93335 32.9527C9.86668 34.286 12.1334 32.286 14.2667 25.2193C15.2 21.6193 17.4667 17.7527 19.4667 16.286C22.9334 13.6193 24.5334 13.486 70.5334 13.486C105.733 13.6193 118.533 14.0193 120 15.2193C124.133 18.4193 126.667 23.486 126.667 28.5527C126.667 35.6193 128.667 38.8193 133.067 38.8193C138.4 38.8193 140 36.5527 140 29.2193C140 17.6193 132.8 6.286 122.8 2.01934C116 -0.780662 24 -0.647328 17.3334 2.286Z" fill="#F3F4F6"/>
<path d="M185.067 2.68596C172.533 7.61929 162.8 19.086 160 32.0193C154.533 57.7526 174.4 81.486 201.333 81.486C207.6 81.486 209.867 80.9526 212 78.8193C213.467 77.3526 214.667 75.486 214.667 74.8193C214.667 74.0193 213.467 72.286 212 70.8193C210 68.8193 207.467 68.1526 201.733 68.1526C188 68.0193 176.533 59.886 173.2 47.886C170 35.886 175.867 22.286 186.533 16.5526C192.4 13.486 192.667 13.486 242.933 13.486C291.6 13.486 293.467 13.3526 296 10.8193C299.2 7.61929 299.333 5.08596 296.533 2.28596C294.8 0.419291 288 0.152624 242.933 0.152624C196 0.285958 190.8 0.552624 185.067 2.68596Z" fill="#F3F4F6"/>
<path d="M318.933 1.75262C318.133 2.55262 317.333 4.68595 317.333 6.28595C317.333 12.686 318.267 12.8193 374.133 13.486L426.4 14.1526L431.467 18.286C438.533 24.0193 441.467 28.286 442.667 34.9526C445.067 47.6193 438.533 60.5526 427.467 65.6193C422.533 67.886 417.867 68.1526 374.4 68.1526C332.933 68.1526 326.533 68.4193 324.8 70.286C322.933 72.0193 322.667 77.486 322.667 109.353C322.667 148.286 322.8 149.486 328.8 149.486C335.6 149.486 336 147.753 336 113.353V81.486H378.4C425.6 81.486 430 80.9526 440.267 73.086C455.867 61.2193 461.067 39.486 452.533 22.5526C449.333 16.0193 440.133 6.95262 433.333 3.75262C427.467 0.952621 425.6 0.819287 374 0.419287C333.067 0.152621 320.267 0.419287 318.933 1.75262Z" fill="#F3F4F6"/>
<path d="M2.66667 70.8193C0.133333 73.3526 0 75.2193 0 98.5526C0 127.353 1.33333 134.419 8.26667 141.086C16.8 149.353 17.7333 149.486 70.6667 149.486C122.8 149.486 123.867 149.353 131.2 142.019C139.2 134.019 140 130.286 140 100.019C140 75.086 139.733 72.4193 137.6 70.4193C135.467 68.4193 130.533 68.1526 96.2667 68.1526C62.8 68.1526 57.2 68.4193 55.4667 70.286C52.8 72.9526 52.8 76.686 55.4667 79.3526C57.2 81.2193 62.4 81.486 92.1333 81.486H126.667V103.886C126.667 122.819 126.267 126.686 124.4 129.486C119.733 136.153 120.8 136.019 70.6667 136.153C28.9333 136.153 22.9333 135.886 20.1333 134.019C14.2667 129.886 13.3333 124.819 13.3333 96.9526C13.3333 72.5526 13.2 70.8193 10.8 69.486C7.06667 67.6193 5.73333 67.7526 2.66667 70.8193Z" fill="#F3F4F6"/>
<path d="M244.667 71.3526C242.533 74.5526 242.533 75.086 244.533 78.1526C246.533 81.086 247.6 81.486 255.067 81.486C265.2 81.486 272.4 84.5526 278.267 91.2193C288.933 103.353 286.4 122.419 272.933 131.753L267.6 135.486L215.067 136.153C164.933 136.819 162.4 136.953 160.533 139.353C158.133 142.686 158.133 144.819 160.8 147.353C162.533 149.219 169.333 149.486 214 149.486C261.867 149.486 265.733 149.353 272.267 146.819C284.267 142.419 294.133 130.819 297.333 117.753C301.6 99.6193 291.6 79.7526 274.133 72.0193C270.267 70.286 263.6 68.9526 257.333 68.5526C247.2 67.7526 246.933 67.886 244.667 71.3526Z" fill="#F3F4F6"/>
</svg>
