<svg width="36" height="36" viewBox="0 0 36 36" fill="none" xmlns="http://www.w3.org/2000/svg">
<path fill-rule="evenodd" clip-rule="evenodd" d="M18 0C8.06291 0 0 8.06291 0 18C0 27.9371 8.06291 36 18 36C27.9176 36 36 27.9371 36 18C36 8.06291 27.9176 0 18 0ZM29.8893 8.29718C32.0369 10.9132 33.3254 14.2516 33.3645 17.8633C32.8569 17.7658 27.7809 16.731 22.6659 17.3753C22.5488 17.1215 22.4512 16.8481 22.3341 16.5749C22.0217 15.833 21.6703 15.0716 21.3189 14.3493C26.9804 12.0456 29.5575 8.72668 29.8893 8.29718ZM18 2.6551C21.9045 2.6551 25.4772 4.11931 28.1909 6.52061C27.9175 6.91107 25.5943 10.0152 20.1279 12.0651C17.6095 7.43817 14.8178 3.65076 14.3883 3.06507C15.5401 2.79175 16.7506 2.6551 18 2.6551ZM11.4599 4.09978C11.8699 4.64642 14.6031 8.45336 17.1605 12.9826C9.97614 14.8959 3.63124 14.8569 2.94794 14.8569C3.9436 10.0933 7.16485 6.13015 11.4599 4.09978ZM2.61605 18.0196C2.61605 17.8633 2.61605 17.7072 2.61605 17.551C3.27983 17.5705 10.7375 17.6681 18.41 15.3645C18.8591 16.2234 19.269 17.1019 19.6595 17.9804C19.4642 18.039 19.2494 18.0976 19.0542 18.1561C11.128 20.7136 6.91107 27.7028 6.55965 28.2885C4.1193 25.5748 2.61605 21.9632 2.61605 18.0196ZM18 33.3839C14.4468 33.3839 11.167 32.1735 8.5705 30.1431C8.84382 29.577 11.9674 23.564 20.6355 20.538C20.6746 20.5184 20.6942 20.5184 20.7332 20.499C22.9002 26.1019 23.7788 30.8069 24.013 32.154C22.1583 32.9544 20.1279 33.3839 18 33.3839ZM26.5705 30.7484C26.4143 29.8113 25.5943 25.3211 23.5835 19.7961C28.4057 19.0347 32.6225 20.2842 33.1497 20.4599C32.486 24.7354 30.026 28.4251 26.5705 30.7484Z" fill="#F3F4F6"/>
</svg>
